ffmpeg version N-55863-g9f38fac053-static https://johnvansickle.com/ffmpeg/  Copyright (c) 2000-2021 the FFmpeg developers
  built with gcc 8 (Debian 8.3.0-6)
  configuration: --enable-gpl --enable-version3 --enable-static --disable-debug --disable-ffplay --disable-indev=sndio --disable-outdev=sndio --cc=gcc --enable-fontconfig --enable-frei0r --enable-gnutls --enable-gmp --enable-libgme --enable-gray --enable-libaom --enable-libfribidi --enable-libass --enable-libvmaf --enable-libfreetype --enable-libmp3lame --enable-libopencore-amrnb --enable-libopencore-amrwb --enable-libopenjpeg --enable-librubberband --enable-libsoxr --enable-libspeex --enable-libsrt --enable-libvorbis --enable-libopus --enable-libtheora --enable-libvidstab --enable-libvo-amrwbenc --enable-libvpx --enable-libwebp --enable-libx264 --enable-libx265 --enable-libxml2 --enable-libdav1d --enable-libxvid --enable-libzvbi --enable-libzimg
  libavutil      56. 64.100 / 56. 64.100
  libavcodec     58.119.100 / 58.119.100
  libavformat    58. 65.101 / 58. 65.101
  libavdevice    58. 11.103 / 58. 11.103
  libavfilter     7.100.100 /  7.100.100
  libswscale      5.  8.100 /  5.  8.100
  libswresample   3.  8.100 /  3.  8.100
  libpostproc    55.  8.100 / 55.  8.100
Input #0, mov,mp4,m4a,3gp,3g2,mj2, from '/home/yiaapc5/public_html/f_data/data_userfiles/user_uploads/1134370236/v/1612631098.mp4':
  Metadata:
    major_brand     : mp42
    minor_version   : 0
    compatible_brands: isommp42
    creation_time   : 2021-01-25T02:26:22.000000Z
  Duration: 00:02:34.37, start: 0.000000, bitrate: 1263 kb/s
    Stream #0:0(und): Video: h264 (Main) (avc1 / 0x31637661), yuv420p(tv, bt709), 1280x720 [SAR 1:1 DAR 16:9], 1131 kb/s, 30 fps, 30 tbr, 15360 tbn, 60 tbc (default)
    Metadata:
      creation_time   : 2021-01-25T02:26:22.000000Z
      handler_name    : ISO Media file produced by Google Inc. Created on: 01/24/2021.
      vendor_id       : [0][0][0][0]
    Stream #0:1(und): Audio: aac (LC) (mp4a / 0x6134706D), 44100 Hz, stereo, fltp, 128 kb/s (default)
    Metadata:
      creation_time   : 2021-01-25T02:26:22.000000Z
      handler_name    : ISO Media file produced by Google Inc. Created on: 01/24/2021.
      vendor_id       : [0][0][0][0]
Codec AVOption rc_eq (Set rate control equation. When computing the expression, besides the standard functions defined in the section 'Expression Evaluation', the following functions are available: bits2qp(bits), qp2bits(qp). Also the following constants are available: iTex pTex tex mv fCode iCount mcVar var isI isP isB avgQP qComp avgIITex avgPITex avgPPTex avgBPTex avgTex.) specified for output file #0 (/home/yiaapc5/public_html/f_data/data_userfiles/user_media/1134370236/v/5d1514239ea082f557d1fb7f68423687.mob.nomob.mp4) has not been used for any stream. The most likely reason is either wrong type (e.g. a video option with no video streams) or that it is a private option of some encoder which was not actually used for any stream.
Stream mapping:
  Stream #0:0 -> #0:0 (h264 (native) -> h264 (libx264))
  Stream #0:1 -> #0:1 (aac (native) -> aac (native))
Press [q] to stop, [?] for help
[libx264 @ 0x77a14c0] Application has requested 32 threads. Using a thread count greater than 16 is not recommended.
[libx264 @ 0x77a14c0] using SAR=136/135
[libx264 @ 0x77a14c0] frame MB size (30x17) > level limit (396)
[libx264 @ 0x77a14c0] VBV bitrate (10000) > level limit (768)
[libx264 @ 0x77a14c0] VBV buffer (10000) > level limit (2000)
[libx264 @ 0x77a14c0] MB rate (15300) > level limit (11880)
[libx264 @ 0x77a14c0] using cpu capabilities: MMX2 SSE2Fast SSSE3 SSE4.2 AVX
[libx264 @ 0x77a14c0] profile Constrained Baseline, level 1.3, 4:2:0, 8-bit
[libx264 @ 0x77a14c0] 264 - core 161 r3040 35417dc - H.264/MPEG-4 AVC codec - Copyleft 2003-2021 - http://www.videolan.org/x264.html - options: cabac=0 ref=1 deblock=1:0:0 analyse=0x1:0 me=hex subme=1 psy=1 psy_rd=1.00:0.00 mixed_ref=0 me_range=16 chroma_me=1 trellis=0 8x8dct=0 cqm=0 deadzone=21,11 fast_pskip=1 chroma_qp_offset=0 threads=32 lookahead_threads=2 sliced_threads=0 nr=0 decimate=1 interlaced=0 bluray_compat=0 constrained_intra=0 bframes=0 weightp=0 keyint=300 keyint_min=25 scenecut=40 intra_refresh=0 rc_lookahead=30 rc=abr mbtree=1 bitrate=1000 ratetol=1.0 qcomp=0.60 qpmin=10 qpmax=51 qpstep=4 vbv_maxrate=10000 vbv_bufsize=10000 nal_hrd=none filler=0 ip_ratio=1.41 aq=1:1.00
Output #0, mp4, to '/home/yiaapc5/public_html/f_data/data_userfiles/user_media/1134370236/v/5d1514239ea082f557d1fb7f68423687.mob.nomob.mp4':
  Metadata:
    major_brand     : mp42
    minor_version   : 0
    compatible_brands: isommp42
    encoder         : Lavf58.65.101
    Stream #0:0(und): Video: h264 (avc1 / 0x31637661), yuv420p(tv, bt709, progressive), 480x272 [SAR 136:135 DAR 16:9], q=2-31, 1000 kb/s, 30 fps, 15360 tbn (default)
    Metadata:
      creation_time   : 2021-01-25T02:26:22.000000Z
      handler_name    : ISO Media file produced by Google Inc. Created on: 01/24/2021.
      vendor_id       : [0][0][0][0]
      encoder         : Lavc58.119.100 libx264
    Side data:
      cpb: bitrate max/min/avg: 10000000/0/1000000 buffer size: 10000000 vbv_delay: N/A
    Stream #0:1(und): Audio: aac (LC) (mp4a / 0x6134706D), 44100 Hz, stereo, fltp, 128 kb/s (default)
    Metadata:
      creation_time   : 2021-01-25T02:26:22.000000Z
      handler_name    : ISO Media file produced by Google Inc. Created on: 01/24/2021.
      vendor_id       : [0][0][0][0]
      encoder         : Lavc58.119.100 aac
frame=    1 fps=0.0 q=0.0 size=       0kB time=00:00:00.41 bitrate=   0.9kbits/s speed=8.56x    frame=  192 fps=0.0 q=25.0 size=     512kB time=00:00:06.68 bitrate= 627.3kbits/s speed=12.2x    frame=  412 fps=392 q=26.0 size=    1536kB time=00:00:14.11 bitrate= 891.3kbits/s speed=13.4x    frame=  635 fps=409 q=25.0 size=    2560kB time=00:00:21.54 bitrate= 973.3kbits/s speed=13.9x    frame=  857 fps=418 q=24.0 size=    3328kB time=00:00:28.88 bitrate= 943.8kbits/s speed=14.1x    frame= 1071 fps=420 q=26.0 size=    4608kB time=00:00:35.94 bitrate=1050.2kbits/s speed=14.1x    frame= 1296 fps=425 q=22.0 size=    5120kB time=00:00:43.37 bitrate= 967.0kbits/s speed=14.2x    frame= 1497 fps=421 q=20.0 size=    5888kB time=00:00:49.87 bitrate= 967.1kbits/s speed=  14x    frame= 1696 fps=418 q=19.0 size=    6656kB time=00:00:56.84 bitrate= 959.3kbits/s speed=  14x    frame= 1895 fps=416 q=20.0 size=    7680kB time=00:01:03.34 bitrate= 993.2kbits/s speed=13.9x    frame= 2096 fps=415 q=20.0 size=    8704kB time=00:01:09.84 bitrate=1020.9kbits/s speed=13.8x    frame= 2293 fps=413 q=20.0 size=    9728kB time=00:01:16.69 bitrate=1039.1kbits/s speed=13.8x    frame= 2505 fps=414 q=21.0 size=   10496kB time=00:01:23.77 bitrate=1026.3kbits/s speed=13.8x    frame= 2717 fps=414 q=22.0 size=   12032kB time=00:01:30.74 bitrate=1086.2kbits/s speed=13.8x    frame= 2932 fps=415 q=23.0 size=   13056kB time=00:01:38.17 bitrate=1089.4kbits/s speed=13.9x    frame= 3159 fps=418 q=20.0 size=   14080kB time=00:01:45.60 bitrate=1092.2kbits/s speed=  14x    frame= 3385 fps=420 q=24.0 size=   15616kB time=00:01:53.03 bitrate=1131.7kbits/s speed=  14x    frame= 3610 fps=422 q=24.0 size=   16384kB time=00:02:00.46 bitrate=1114.2kbits/s speed=14.1x    frame= 3833 fps=423 q=23.0 size=   17408kB time=00:02:07.89 bitrate=1115.0kbits/s speed=14.1x    frame= 4057 fps=424 q=23.0 size=   18176kB time=00:02:15.32 bitrate=1100.3kbits/s speed=14.2x    frame= 4280 fps=425 q=23.0 size=   19456kB time=00:02:22.75 bitrate=1116.5kbits/s speed=14.2x    frame= 4498 fps=426 q=22.0 size=   19968kB time=00:02:30.18 bitrate=1089.2kbits/s speed=14.2x    frame= 4631 fps=426 q=-1.0 Lsize=   20922kB time=00:02:34.34 bitrate=1110.5kbits/s speed=14.2x    
video:18365kB audio:2428kB subtitle:0kB other streams:0kB global headers:0kB muxing overhead: 0.621821%
[libx264 @ 0x77a14c0] frame I:92    Avg QP:13.87  size: 14632
[libx264 @ 0x77a14c0] frame P:4539  Avg QP:16.09  size:  3846
[libx264 @ 0x77a14c0] mb I  I16..4: 34.4%  0.0% 65.6%
[libx264 @ 0x77a14c0] mb P  I16..4:  9.0%  0.0%  0.0%  P16..4: 45.9%  0.0%  0.0%  0.0%  0.0%    skip:45.1%
[libx264 @ 0x77a14c0] final ratefactor: 16.34
[libx264 @ 0x77a14c0] coded y,uvDC,uvAC intra: 54.3% 60.6% 39.4% inter: 28.7% 21.2% 4.1%
[libx264 @ 0x77a14c0] i16 v,h,dc,p: 35% 34% 13% 17%
[libx264 @ 0x77a14c0] i4 v,h,dc,ddl,ddr,vr,hd,vl,hu: 20% 26% 10%  8%  7%  6%  8%  6%  8%
[libx264 @ 0x77a14c0] i8c dc,h,v,p: 39% 31% 17% 13%
[libx264 @ 0x77a14c0] kb/s:974.56
[aac @ 0x7778940] Qavg: 217.064
